<?xml version="1.0" encoding="UTF-8" standalone="no"?>
<!-- Created with Inkscape (http://www.inkscape.org/) -->

<svg
   width="210mm"
   height="297mm"
   viewBox="0 0 210 297"
   version="1.1"
   id="svg17222"
   xml:space="preserve"
   sodipodi:docname="RLCK_fig.svg"
   inkscape:version="1.2.2 (732a01da63, 2022-12-09)"
   xmlns:inkscape="http://www.inkscape.org/namespaces/inkscape"
   xmlns:sodipodi="http://sodipodi.sourceforge.net/DTD/sodipodi-0.dtd"
   xmlns="http://www.w3.org/2000/svg"
   xmlns:svg="http://www.w3.org/2000/svg"><sodipodi:namedview
     id="namedview17224"
     pagecolor="#ffffff"
     bordercolor="#000000"
     borderopacity="0.25"
     inkscape:showpageshadow="2"
     inkscape:pageopacity="0.0"
     inkscape:pagecheckerboard="0"
     inkscape:deskcolor="#d1d1d1"
     inkscape:document-units="mm"
     showgrid="false"
     inkscape:zoom="0.64693624"
     inkscape:cx="486.13755"
     inkscape:cy="486.13755"
     inkscape:window-width="1350"
     inkscape:window-height="1230"
     inkscape:window-x="1011"
     inkscape:window-y="98"
     inkscape:window-maximized="0"
     inkscape:current-layer="layer1" /><defs
     id="defs17219"><style
       type="text/css"
       id="style17589"><![CDATA[
    .svglite line, .svglite polyline, .svglite polygon, .svglite path, .svglite rect, .svglite circle {
      fill: none;
      stroke: #000000;
      stroke-linecap: round;
      stroke-linejoin: round;
      stroke-miterlimit: 10.00;
    }
    .svglite text {
      white-space: pre;
    }
  ]]></style><clipPath
       id="cpMC4wMHw1MDQuMDB8MC4wMHw1MDQuMDA="><rect
         x="0.00"
         y="0.00"
         width="504.00"
         height="504.00"
         id="rect17595" /></clipPath><clipPath
       id="cpNDUuNTB8NDk4LjUyfDIzLjM0fDQ3Mi4yNw=="><rect
         x="45.50"
         y="23.34"
         width="453.02"
         height="448.93"
         id="rect17604" /></clipPath><style
       type="text/css"
       id="style17820"><![CDATA[
    .svglite line, .svglite polyline, .svglite polygon, .svglite path, .svglite rect, .svglite circle {
      fill: none;
      stroke: #000000;
      stroke-linecap: round;
      stroke-linejoin: round;
      stroke-miterlimit: 10.00;
    }
    .svglite text {
      white-space: pre;
    }
  ]]></style><clipPath
       id="cpMC4wMHw1MDQuMDB8MC4wMHw1MDQuMDA=-0"><rect
         x="0.00"
         y="0.00"
         width="504.00"
         height="504.00"
         id="rect17826" /></clipPath><clipPath
       id="cpMzMuMjd8NDk4LjUyfDIzLjM0fDQ3Mi4yNw=="><rect
         x="33.27"
         y="23.34"
         width="465.25"
         height="448.93"
         id="rect17835" /></clipPath><style
       type="text/css"
       id="style18055"><![CDATA[
    .svglite line, .svglite polyline, .svglite polygon, .svglite path, .svglite rect, .svglite circle {
      fill: none;
      stroke: #000000;
      stroke-linecap: round;
      stroke-linejoin: round;
      stroke-miterlimit: 10.00;
    }
    .svglite text {
      white-space: pre;
    }
  ]]></style><clipPath
       id="cpMC4wMHw1MDQuMDB8MC4wMHw1MDQuMDA=-01"><rect
         x="0.00"
         y="0.00"
         width="504.00"
         height="504.00"
         id="rect18061" /></clipPath><clipPath
       id="cpMzMuMjd8NDk4LjUyfDIzLjM0fDQ3Mi4yNw==-9"><rect
         x="33.27"
         y="23.34"
         width="465.25"
         height="448.93"
         id="rect18070" /></clipPath></defs><g
     inkscape:label="Layer 1"
     inkscape:groupmode="layer"
     id="layer1"><g
       id="g17726"
       transform="matrix(0.17263058,0,0,0.17263058,7.1552816,13.418267)"><rect
         width="100%"
         height="100%"
         style="fill:#ffffff;stroke:none"
         id="rect17593"
         x="0"
         y="0" /><g
         clip-path="url(#cpMC4wMHw1MDQuMDB8MC4wMHw1MDQuMDA=)"
         id="g17602"><rect
           x="0"
           y="0"
           width="504"
           height="504"
           style="fill:#ffffff;stroke:#ffffff;stroke-width:1.07"
           id="rect17600" /></g><g
         clip-path="url(#cpNDUuNTB8NDk4LjUyfDIzLjM0fDQ3Mi4yNw==)"
         id="g17637"><rect
           x="45.5"
           y="23.34"
           width="453.01999"
           height="448.92999"
           style="fill:#ffffff;stroke:none;stroke-width:1.07"
           id="rect17609" /><circle
           cx="83.110001"
           cy="203.56"
           r="2.49"
           style="fill:#ff0000;stroke:#ff0000;stroke-width:0.71"
           id="circle17611" /><circle
           cx="148.91"
           cy="134.78999"
           r="2.49"
           style="fill:#ff0000;stroke:#ff0000;stroke-width:0.71"
           id="circle17613" /><circle
           cx="214.72"
           cy="243"
           r="2.49"
           style="fill:#ff0000;stroke:#ff0000;stroke-width:0.71"
           id="circle17615" /><circle
           cx="280.51999"
           cy="249.81"
           r="2.49"
           style="fill:#ff0000;stroke:#ff0000;stroke-width:0.71"
           id="circle17617" /><circle
           cx="346.32001"
           cy="289.51999"
           r="2.49"
           style="fill:#ff0000;stroke:#ff0000;stroke-width:0.71"
           id="circle17619" /><circle
           cx="412.13"
           cy="284.03"
           r="2.49"
           style="fill:#ff0000;stroke:#ff0000;stroke-width:0.71"
           id="circle17621" /><circle
           cx="477.92999"
           cy="251.17"
           r="2.49"
           style="fill:#ff0000;stroke:#ff0000;stroke-width:0.71"
           id="circle17623" /><polygon
           points="116.07,89.6 121.07,94.08 126.06,98.52 131.06,102.93 136.06,107.32 141.06,111.66 146.06,115.97 151.05,120.23 156.05,124.44 161.05,128.6 166.05,132.71 171.04,136.75 176.04,140.72 181.04,144.61 186.04,148.42 191.03,152.14 196.03,155.76 201.03,159.26 206.03,162.64 211.03,165.89 216.02,168.99 221.02,171.94 226.02,174.72 231.02,177.32 236.01,179.73 241.01,181.94 246.01,183.96 251.01,185.76 256,187.35 261,188.73 266,189.91 271,190.88 276,191.66 280.99,192.26 285.99,192.68 290.99,192.94 295.99,193.04 300.98,193.01 305.98,192.85 310.98,192.56 315.98,192.18 320.97,191.69 325.97,191.11 330.97,190.45 335.97,189.72 340.97,188.92 345.96,188.06 350.96,187.14 355.96,186.17 360.96,185.16 365.95,184.11 370.95,183.01 375.95,181.89 380.95,180.73 385.95,179.54 390.94,178.32 395.94,177.08 400.94,175.81 405.94,174.53 410.93,173.22 415.93,171.9 420.93,170.56 425.93,169.2 430.92,167.83 435.92,166.45 440.92,165.05 445.92,163.65 450.92,162.23 455.91,160.8 460.91,159.36 460.91,451.86 455.91,447.15 450.92,442.46 445.92,437.77 440.92,433.1 435.92,428.44 430.92,423.79 425.93,419.15 420.93,414.53 415.93,409.92 410.93,405.33 405.94,400.76 400.94,396.21 395.94,391.68 390.94,387.17 385.95,382.69 380.95,378.23 375.95,373.8 370.95,369.41 365.95,365.05 360.96,360.73 355.96,356.45 350.96,352.22 345.96,348.04 340.97,343.91 335.97,339.84 330.97,335.84 325.97,331.92 320.97,328.07 315.98,324.32 310.98,320.66 305.98,317.12 300.98,313.69 295.99,310.39 290.99,307.22 285.99,304.22 280.99,301.37 276,298.7 271,296.22 266,293.92 261,291.83 256,289.95 251.01,288.28 246.01,286.81 241.01,285.56 236.01,284.5 231.02,283.65 226.02,282.98 221.02,282.5 216.02,282.18 211.03,282.01 206.03,282 201.03,282.11 196.03,282.35 191.03,282.7 186.04,283.15 181.04,283.69 176.04,284.32 171.04,285.02 166.05,285.8 161.05,286.64 156.05,287.53 151.05,288.48 146.06,289.48 141.06,290.51 136.06,291.59 131.06,292.71 126.06,293.86 121.07,295.03 116.07,296.24 111.07,297.47 106.07,298.73 101.08,300.01 96.08,301.3 91.08,302.62 86.08,303.95 81.09,305.3 76.09,306.67 71.09,308.05 66.09,309.44 66.09,43.74 71.09,48.4 76.09,53.04 81.09,57.68 86.08,62.29 91.08,66.89 96.08,71.47 101.08,76.04 106.07,80.58 111.07,85.11 "
           style="fill:#999999;fill-opacity:0.4;stroke:none;stroke-width:0;stroke-linecap:butt"
           id="polygon17625" /><polyline
           points="66.09,176.59 71.09,178.22 76.09,179.86 81.09,181.49 86.08,183.12 91.08,184.76 96.08,186.39 101.08,188.02 106.07,189.66 111.07,191.29 116.07,192.92 121.07,194.55 126.06,196.19 131.06,197.82 136.06,199.45 141.06,201.09 146.06,202.72 151.05,204.35 156.05,205.99 161.05,207.62 166.05,209.25 171.04,210.89 176.04,212.52 181.04,214.15 186.04,215.79 191.03,217.42 196.03,219.05 201.03,220.69 206.03,222.32 211.03,223.95 216.02,225.58 221.02,227.22 226.02,228.85 231.02,230.48 236.01,232.12 241.01,233.75 246.01,235.38 251.01,237.02 256.00,238.65 261.00,240.28 266.00,241.92 271.00,243.55 276.00,245.18 280.99,246.82 285.99,248.45 290.99,250.08 295.99,251.71 300.98,253.35 305.98,254.98 310.98,256.61 315.98,258.25 320.97,259.88 325.97,261.51 330.97,263.15 335.97,264.78 340.97,266.41 345.96,268.05 350.96,269.68 355.96,271.31 360.96,272.95 365.95,274.58 370.95,276.21 375.95,277.85 380.95,279.48 385.95,281.11 390.94,282.74 395.94,284.38 400.94,286.01 405.94,287.64 410.93,289.28 415.93,290.91 420.93,292.54 425.93,294.18 430.92,295.81 435.92,297.44 440.92,299.08 445.92,300.71 450.92,302.34 455.91,303.98 460.91,305.61 "
           style="stroke:#3366ff;stroke-width:2.13;stroke-linecap:butt"
           id="polyline17631" /><text
           x="480.62"
           y="48.880001"
           text-anchor="end"
           style="font-size:14.23px;font-family:Arial"
           textLength="179.02"
           lengthAdjust="spacingAndGlyphs"
           id="text17633">Spearman: -0.05 (p = 0.096)</text><text
           x="498.51999"
           y="69.370003"
           text-anchor="end"
           style="font-size:14.23px;font-family:Arial"
           textLength="0"
           lengthAdjust="spacingAndGlyphs"
           id="text17635" /></g><g
         clip-path="url(#cpMC4wMHw1MDQuMDB8MC4wMHw1MDQuMDA=)"
         id="g17677"><polyline
           points="45.50,472.27 45.50,23.34 "
           style="stroke-width:1.07;stroke-linecap:butt"
           id="polyline17639" /><text
           x="40.57"
           y="389.88"
           text-anchor="end"
           style="font-size:8.8px;font-family:Arial;fill:#4d4d4d"
           textLength="22.02"
           lengthAdjust="spacingAndGlyphs"
           id="text17641">0.750</text><text
           x="40.57"
           y="293.29001"
           text-anchor="end"
           style="font-size:8.8px;font-family:Arial;fill:#4d4d4d"
           textLength="22.02"
           lengthAdjust="spacingAndGlyphs"
           id="text17643">0.775</text><text
           x="40.57"
           y="196.69"
           text-anchor="end"
           style="font-size:8.8px;font-family:Arial;fill:#4d4d4d"
           textLength="22.02"
           lengthAdjust="spacingAndGlyphs"
           id="text17645">0.800</text><text
           x="40.57"
           y="100.1"
           text-anchor="end"
           style="font-size:8.8px;font-family:Arial;fill:#4d4d4d"
           textLength="22.02"
           lengthAdjust="spacingAndGlyphs"
           id="text17647">0.825</text><polyline
           points="42.76,386.73 45.50,386.73 "
           style="stroke:#333333;stroke-width:1.07;stroke-linecap:butt"
           id="polyline17649" /><polyline
           points="42.76,290.13 45.50,290.13 "
           style="stroke:#333333;stroke-width:1.07;stroke-linecap:butt"
           id="polyline17651" /><polyline
           points="42.76,193.54 45.50,193.54 "
           style="stroke:#333333;stroke-width:1.07;stroke-linecap:butt"
           id="polyline17653" /><polyline
           points="42.76,96.95 45.50,96.95 "
           style="stroke:#333333;stroke-width:1.07;stroke-linecap:butt"
           id="polyline17655" /><polyline
           points="45.50,472.27 498.52,472.27 "
           style="stroke-width:1.07;stroke-linecap:butt"
           id="polyline17657" /><polyline
           points="120.55,475.01 120.55,472.27 "
           style="stroke:#333333;stroke-width:1.07;stroke-linecap:butt"
           id="polyline17659" /><polyline
           points="256.69,475.01 256.69,472.27 "
           style="stroke:#333333;stroke-width:1.07;stroke-linecap:butt"
           id="polyline17661" /><polyline
           points="392.84,475.01 392.84,472.27 "
           style="stroke:#333333;stroke-width:1.07;stroke-linecap:butt"
           id="polyline17663" /><text
           x="120.55"
           y="483.5"
           text-anchor="middle"
           style="font-size:8.8px;font-family:Arial;fill:#4d4d4d"
           textLength="9.79"
           lengthAdjust="spacingAndGlyphs"
           id="text17665">20</text><text
           x="256.69"
           y="483.5"
           text-anchor="middle"
           style="font-size:8.8px;font-family:Arial;fill:#4d4d4d"
           textLength="9.79"
           lengthAdjust="spacingAndGlyphs"
           id="text17667">40</text><text
           x="392.84"
           y="483.5"
           text-anchor="middle"
           style="font-size:8.8px;font-family:Arial;fill:#4d4d4d"
           textLength="9.79"
           lengthAdjust="spacingAndGlyphs"
           id="text17669">60</text><text
           x="272.01001"
           y="496.09"
           text-anchor="middle"
           style="font-size:11px;font-family:Arial"
           textLength="58.689999"
           lengthAdjust="spacingAndGlyphs"
           id="text17671">BAPQ Aloof</text><text
           transform="rotate(-90,130.585,117.215)"
           text-anchor="middle"
           style="font-size:11px;font-family:Arial"
           textLength="113.71"
           lengthAdjust="spacingAndGlyphs"
           id="text17673">RLCKTOptimizedAlpha</text><text
           x="45.5"
           y="14.94"
           style="font-size:13.2px;font-family:Arial"
           textLength="116.58"
           lengthAdjust="spacingAndGlyphs"
           id="text17675">Aloof x RLCK Alpha</text></g></g><g
       id="g17963"
       transform="matrix(0.18967306,0,0,0.18967306,100.86625,11.095367)"><rect
         width="100%"
         height="100%"
         style="fill:#ffffff;stroke:none"
         id="rect17824"
         x="0"
         y="0" /><g
         clip-path="url(#cpMC4wMHw1MDQuMDB8MC4wMHw1MDQuMDA=-0)"
         id="g17833"><rect
           x="0"
           y="0"
           width="504"
           height="504"
           style="fill:#ffffff;stroke:#ffffff;stroke-width:1.07"
           id="rect17831" /></g><g
         clip-path="url(#cpMzMuMjd8NDk4LjUyfDIzLjM0fDQ3Mi4yNw==)"
         id="g17868"><rect
           x="33.27"
           y="23.34"
           width="465.25"
           height="448.92999"
           style="fill:#ffffff;stroke:none;stroke-width:1.07"
           id="rect17840" /><circle
           cx="71.889999"
           cy="70.599998"
           r="2.49"
           style="fill:#ff0000;stroke:#ff0000;stroke-width:0.71"
           id="circle17842" /><circle
           cx="139.47"
           cy="278.14999"
           r="2.49"
           style="fill:#ff0000;stroke:#ff0000;stroke-width:0.71"
           id="circle17844" /><circle
           cx="207.05"
           cy="327.62"
           r="2.49"
           style="fill:#ff0000;stroke:#ff0000;stroke-width:0.71"
           id="circle17846" /><circle
           cx="274.63"
           cy="296.69"
           r="2.49"
           style="fill:#ff0000;stroke:#ff0000;stroke-width:0.71"
           id="circle17848" /><circle
           cx="342.20999"
           cy="95.260002"
           r="2.49"
           style="fill:#ff0000;stroke:#ff0000;stroke-width:0.71"
           id="circle17850" /><circle
           cx="409.79001"
           cy="219.48"
           r="2.49"
           style="fill:#ff0000;stroke:#ff0000;stroke-width:0.71"
           id="circle17852" /><circle
           cx="477.37"
           cy="172.44"
           r="2.49"
           style="fill:#ff0000;stroke:#ff0000;stroke-width:0.71"
           id="circle17854" /><polygon
           points="74.95,206.16 80.08,207.1 85.21,208.02 90.34,208.93 95.48,209.81 100.61,210.68 105.74,211.53 110.87,212.35 116.01,213.14 121.14,213.91 126.27,214.64 131.41,215.34 136.54,216 141.67,216.63 146.8,217.2 151.94,217.73 157.07,218.21 162.2,218.62 167.33,218.97 172.47,219.25 177.6,219.44 182.73,219.56 187.86,219.57 193,219.48 198.13,219.28 203.26,218.95 208.4,218.48 213.53,217.87 218.66,217.1 223.79,216.16 228.93,215.04 234.06,213.74 239.19,212.25 244.32,210.56 249.46,208.67 254.59,206.59 259.72,204.32 264.85,201.85 269.99,199.2 275.12,196.38 280.25,193.39 285.38,190.26 290.52,186.97 295.65,183.56 300.78,180.02 305.92,176.38 311.05,172.63 316.18,168.79 321.31,164.87 326.45,160.87 331.58,156.8 336.71,152.66 341.84,148.47 346.98,144.23 352.11,139.94 357.24,135.61 362.37,131.24 367.51,126.83 372.64,122.39 377.77,117.92 382.91,113.42 388.04,108.9 393.17,104.35 398.3,99.78 403.44,95.19 408.57,90.58 413.7,85.96 418.83,81.32 423.97,76.66 429.1,71.99 434.23,67.31 439.36,62.62 444.5,57.91 449.63,53.2 454.76,48.48 459.9,43.74 459.9,318.53 454.76,317.49 449.63,316.46 444.5,315.44 439.36,314.43 434.23,313.43 429.1,312.44 423.97,311.47 418.83,310.51 413.7,309.56 408.57,308.63 403.44,307.72 398.3,306.82 393.17,305.95 388.04,305.09 382.91,304.26 377.77,303.46 372.64,302.68 367.51,301.94 362.37,301.22 357.24,300.54 352.11,299.91 346.98,299.31 341.84,298.76 336.71,298.27 331.58,297.83 326.45,297.45 321.31,297.15 316.18,296.92 311.05,296.77 305.92,296.72 300.78,296.77 295.65,296.93 290.52,297.21 285.38,297.62 280.25,298.17 275.12,298.88 269.99,299.76 264.85,300.8 259.72,302.03 254.59,303.45 249.46,305.06 244.32,306.87 239.19,308.87 234.06,311.08 228.93,313.47 223.79,316.05 218.66,318.8 213.53,321.73 208.4,324.81 203.26,328.04 198.13,331.4 193,334.89 187.86,338.49 182.73,342.2 177.6,346.01 172.47,349.9 167.33,353.87 162.2,357.92 157.07,362.03 151.94,366.19 146.8,370.42 141.67,374.69 136.54,379 131.41,383.36 126.27,387.76 121.14,392.18 116.01,396.64 110.87,401.13 105.74,405.65 100.61,410.19 95.48,414.75 90.34,419.33 85.21,423.93 80.08,428.55 74.95,433.18 69.81,437.83 64.68,442.49 59.55,447.17 54.42,451.86 54.42,202.26 59.55,203.25 64.68,204.23 69.81,205.2 "
           style="fill:#999999;fill-opacity:0.4;stroke:none;stroke-width:0;stroke-linecap:butt"
           id="polygon17856" /><polyline
           points="54.42,327.06 59.55,325.21 64.68,323.36 69.81,321.52 74.95,319.67 80.08,317.82 85.21,315.97 90.34,314.13 95.48,312.28 100.61,310.43 105.74,308.59 110.87,306.74 116.01,304.89 121.14,303.05 126.27,301.20 131.41,299.35 136.54,297.50 141.67,295.66 146.80,293.81 151.94,291.96 157.07,290.12 162.20,288.27 167.33,286.42 172.47,284.57 177.60,282.73 182.73,280.88 187.86,279.03 193.00,277.19 198.13,275.34 203.26,273.49 208.40,271.64 213.53,269.80 218.66,267.95 223.79,266.10 228.93,264.26 234.06,262.41 239.19,260.56 244.32,258.71 249.46,256.87 254.59,255.02 259.72,253.17 264.85,251.33 269.99,249.48 275.12,247.63 280.25,245.78 285.38,243.94 290.52,242.09 295.65,240.24 300.78,238.40 305.92,236.55 311.05,234.70 316.18,232.85 321.31,231.01 326.45,229.16 331.58,227.31 336.71,225.47 341.84,223.62 346.98,221.77 352.11,219.92 357.24,218.08 362.37,216.23 367.51,214.38 372.64,212.54 377.77,210.69 382.91,208.84 388.04,206.99 393.17,205.15 398.30,203.30 403.44,201.45 408.57,199.61 413.70,197.76 418.83,195.91 423.97,194.07 429.10,192.22 434.23,190.37 439.36,188.52 444.50,186.68 449.63,184.83 454.76,182.98 459.90,181.14 "
           style="stroke:#3366ff;stroke-width:2.13;stroke-linecap:butt"
           id="polyline17862" /><text
           x="481.09"
           y="48.880001"
           text-anchor="end"
           style="font-size:14.23px;font-family:Arial"
           textLength="174.28"
           lengthAdjust="spacingAndGlyphs"
           id="text17864">Spearman: 0.07 (p = 0.024)</text><text
           x="498.51999"
           y="69.370003"
           text-anchor="end"
           style="font-size:14.23px;font-family:Arial"
           textLength="0"
           lengthAdjust="spacingAndGlyphs"
           id="text17866" /></g><g
         clip-path="url(#cpMC4wMHw1MDQuMDB8MC4wMHw1MDQuMDA=-0)"
         id="g17912"><polyline
           points="33.27,472.27 33.27,23.34 "
           style="stroke-width:1.07;stroke-linecap:butt"
           id="polyline17870" /><text
           x="28.34"
           y="432.22"
           text-anchor="end"
           style="font-size:8.8px;font-family:Arial;fill:#4d4d4d"
           textLength="9.79"
           lengthAdjust="spacingAndGlyphs"
           id="text17872">10</text><text
           x="28.34"
           y="337"
           text-anchor="end"
           style="font-size:8.8px;font-family:Arial;fill:#4d4d4d"
           textLength="9.79"
           lengthAdjust="spacingAndGlyphs"
           id="text17874">12</text><text
           x="28.34"
           y="241.77"
           text-anchor="end"
           style="font-size:8.8px;font-family:Arial;fill:#4d4d4d"
           textLength="9.79"
           lengthAdjust="spacingAndGlyphs"
           id="text17876">14</text><text
           x="28.34"
           y="146.53999"
           text-anchor="end"
           style="font-size:8.8px;font-family:Arial;fill:#4d4d4d"
           textLength="9.79"
           lengthAdjust="spacingAndGlyphs"
           id="text17878">16</text><text
           x="28.34"
           y="51.32"
           text-anchor="end"
           style="font-size:8.8px;font-family:Arial;fill:#4d4d4d"
           textLength="9.79"
           lengthAdjust="spacingAndGlyphs"
           id="text17880">18</text><polyline
           points="30.53,429.07 33.27,429.07 "
           style="stroke:#333333;stroke-width:1.07;stroke-linecap:butt"
           id="polyline17882" /><polyline
           points="30.53,333.84 33.27,333.84 "
           style="stroke:#333333;stroke-width:1.07;stroke-linecap:butt"
           id="polyline17884" /><polyline
           points="30.53,238.62 33.27,238.62 "
           style="stroke:#333333;stroke-width:1.07;stroke-linecap:butt"
           id="polyline17886" /><polyline
           points="30.53,143.39 33.27,143.39 "
           style="stroke:#333333;stroke-width:1.07;stroke-linecap:butt"
           id="polyline17888" /><polyline
           points="30.53,48.16 33.27,48.16 "
           style="stroke:#333333;stroke-width:1.07;stroke-linecap:butt"
           id="polyline17890" /><polyline
           points="33.27,472.27 498.52,472.27 "
           style="stroke-width:1.07;stroke-linecap:butt"
           id="polyline17892" /><polyline
           points="110.34,475.01 110.34,472.27 "
           style="stroke:#333333;stroke-width:1.07;stroke-linecap:butt"
           id="polyline17894" /><polyline
           points="250.16,475.01 250.16,472.27 "
           style="stroke:#333333;stroke-width:1.07;stroke-linecap:butt"
           id="polyline17896" /><polyline
           points="389.98,475.01 389.98,472.27 "
           style="stroke:#333333;stroke-width:1.07;stroke-linecap:butt"
           id="polyline17898" /><text
           x="110.34"
           y="483.5"
           text-anchor="middle"
           style="font-size:8.8px;font-family:Arial;fill:#4d4d4d"
           textLength="9.79"
           lengthAdjust="spacingAndGlyphs"
           id="text17900">20</text><text
           x="250.16"
           y="483.5"
           text-anchor="middle"
           style="font-size:8.8px;font-family:Arial;fill:#4d4d4d"
           textLength="9.79"
           lengthAdjust="spacingAndGlyphs"
           id="text17902">40</text><text
           x="389.98001"
           y="483.5"
           text-anchor="middle"
           style="font-size:8.8px;font-family:Arial;fill:#4d4d4d"
           textLength="9.79"
           lengthAdjust="spacingAndGlyphs"
           id="text17904">60</text><text
           x="265.89001"
           y="496.09"
           text-anchor="middle"
           style="font-size:11px;font-family:Arial"
           textLength="58.689999"
           lengthAdjust="spacingAndGlyphs"
           id="text17906">BAPQ Aloof</text><text
           transform="rotate(-90,130.585,117.215)"
           text-anchor="middle"
           style="font-size:11px;font-family:Arial"
           textLength="108.2"
           lengthAdjust="spacingAndGlyphs"
           id="text17908">RLCKTOptimizedBeta</text><text
           x="33.27"
           y="14.94"
           style="font-size:13.2px;font-family:Arial"
           textLength="109.98"
           lengthAdjust="spacingAndGlyphs"
           id="text17910">Aloof x RLCK Beta</text></g></g><g
       id="g18204"
       transform="matrix(0.19778772,0,0,0.19778772,3.5292528,123.76908)"><rect
         width="100%"
         height="100%"
         style="fill:#ffffff;stroke:none"
         id="rect18059"
         x="0"
         y="0" /><g
         clip-path="url(#cpMC4wMHw1MDQuMDB8MC4wMHw1MDQuMDA=-01)"
         id="g18068"><rect
           x="0"
           y="0"
           width="504"
           height="504"
           style="fill:#ffffff;stroke:#ffffff;stroke-width:1.07"
           id="rect18066" /></g><g
         clip-path="url(#cpMzMuMjd8NDk4LjUyfDIzLjM0fDQ3Mi4yNw==-9)"
         id="g18103"><rect
           x="33.27"
           y="23.34"
           width="465.25"
           height="448.92999"
           style="fill:#ffffff;stroke:none;stroke-width:1.07"
           id="rect18075" /><circle
           cx="58.299999"
           cy="358.22"
           r="2.49"
           style="fill:#ff0000;stroke:#ff0000;stroke-width:0.71"
           id="circle18077" /><circle
           cx="128.14"
           cy="333.95999"
           r="2.49"
           style="fill:#ff0000;stroke:#ff0000;stroke-width:0.71"
           id="circle18079" /><circle
           cx="197.99001"
           cy="291.19"
           r="2.49"
           style="fill:#ff0000;stroke:#ff0000;stroke-width:0.71"
           id="circle18081" /><circle
           cx="267.82999"
           cy="305.44"
           r="2.49"
           style="fill:#ff0000;stroke:#ff0000;stroke-width:0.71"
           id="circle18083" /><circle
           cx="337.67999"
           cy="304.85001"
           r="2.49"
           style="fill:#ff0000;stroke:#ff0000;stroke-width:0.71"
           id="circle18085" /><circle
           cx="407.53"
           cy="280.73001"
           r="2.49"
           style="fill:#ff0000;stroke:#ff0000;stroke-width:0.71"
           id="circle18087" /><circle
           cx="477.37"
           cy="43.740002"
           r="2.49"
           style="fill:#ff0000;stroke:#ff0000;stroke-width:0.71"
           id="circle18089" /><polygon
           points="75.63,196.13 80.94,198.7 86.24,201.27 91.55,203.83 96.85,206.37 102.16,208.9 107.46,211.42 112.77,213.92 118.07,216.4 123.38,218.86 128.68,221.31 133.99,223.73 139.29,226.12 144.6,228.49 149.9,230.83 155.21,233.13 160.51,235.4 165.82,237.63 171.12,239.81 176.43,241.93 181.73,244 187.03,246 192.34,247.93 197.64,249.77 202.95,251.52 208.25,253.17 213.56,254.69 218.86,256.08 224.17,257.33 229.47,258.4 234.78,259.29 240.08,259.98 245.39,260.44 250.69,260.68 256,260.67 261.3,260.41 266.61,259.88 271.91,259.11 277.22,258.08 282.52,256.81 287.83,255.31 293.13,253.61 298.43,251.71 303.74,249.63 309.04,247.4 314.35,245.02 319.65,242.52 324.96,239.9 330.26,237.18 335.57,234.37 340.87,231.49 346.18,228.53 351.48,225.52 356.79,222.44 362.09,219.32 367.4,216.15 372.7,212.95 378.01,209.7 383.31,206.43 388.62,203.13 393.92,199.8 399.23,196.44 404.53,193.07 409.84,189.67 415.14,186.26 420.44,182.83 425.75,179.39 431.05,175.93 436.36,172.46 441.66,168.98 446.97,165.48 452.27,161.98 457.58,158.47 462.88,154.94 468.19,151.41 473.49,147.88 473.49,416.91 468.19,414.29 462.88,411.68 457.58,409.08 452.27,406.49 446.97,403.91 441.66,401.34 436.36,398.78 431.05,396.23 425.75,393.69 420.44,391.17 415.14,388.66 409.84,386.17 404.53,383.7 399.23,381.24 393.92,378.81 388.62,376.4 383.31,374.02 378.01,371.67 372.7,369.35 367.4,367.06 362.09,364.82 356.79,362.62 351.48,360.46 346.18,358.37 340.87,356.33 335.57,354.37 330.26,352.49 324.96,350.69 319.65,348.99 314.35,347.41 309.04,345.96 303.74,344.64 298.43,343.49 293.13,342.51 287.83,341.72 282.52,341.15 277.22,340.8 271.91,340.7 266.61,340.84 261.3,341.24 256,341.9 250.69,342.81 245.39,343.97 240.08,345.36 234.78,346.97 229.47,348.78 224.17,350.77 218.86,352.94 213.56,355.25 208.25,357.69 202.95,360.26 197.64,362.93 192.34,365.7 187.03,368.55 181.73,371.47 176.43,374.46 171.12,377.51 165.82,380.61 160.51,383.76 155.21,386.94 149.9,390.17 144.6,393.43 139.29,396.72 133.99,400.04 128.68,403.38 123.38,406.75 118.07,410.13 112.77,413.54 107.46,416.96 102.16,420.39 96.85,423.85 91.55,427.31 86.24,430.79 80.94,434.28 75.63,437.78 70.33,441.28 65.02,444.8 59.72,448.33 54.42,451.86 54.42,185.73 59.72,188.34 65.02,190.95 70.33,193.54 "
           style="fill:#999999;fill-opacity:0.4;stroke:none;stroke-width:0;stroke-linecap:butt"
           id="polygon18091" /><polyline
           points="54.42,318.79 59.72,318.33 65.02,317.87 70.33,317.41 75.63,316.95 80.94,316.49 86.24,316.03 91.55,315.57 96.85,315.11 102.16,314.65 107.46,314.19 112.77,313.73 118.07,313.27 123.38,312.80 128.68,312.34 133.99,311.88 139.29,311.42 144.60,310.96 149.90,310.50 155.21,310.04 160.51,309.58 165.82,309.12 171.12,308.66 176.43,308.20 181.73,307.74 187.03,307.27 192.34,306.81 197.64,306.35 202.95,305.89 208.25,305.43 213.56,304.97 218.86,304.51 224.17,304.05 229.47,303.59 234.78,303.13 240.08,302.67 245.39,302.21 250.69,301.75 256.00,301.28 261.30,300.82 266.61,300.36 271.91,299.90 277.22,299.44 282.52,298.98 287.83,298.52 293.13,298.06 298.43,297.60 303.74,297.14 309.04,296.68 314.35,296.22 319.65,295.75 324.96,295.29 330.26,294.83 335.57,294.37 340.87,293.91 346.18,293.45 351.48,292.99 356.79,292.53 362.09,292.07 367.40,291.61 372.70,291.15 378.01,290.69 383.31,290.23 388.62,289.76 393.92,289.30 399.23,288.84 404.53,288.38 409.84,287.92 415.14,287.46 420.44,287.00 425.75,286.54 431.05,286.08 436.36,285.62 441.66,285.16 446.97,284.70 452.27,284.23 457.58,283.77 462.88,283.31 468.19,282.85 473.49,282.39 "
           style="stroke:#3366ff;stroke-width:2.13;stroke-linecap:butt"
           id="polyline18097" /><text
           x="483.07001"
           y="48.880001"
           text-anchor="end"
           style="font-size:14.23px;font-family:Arial"
           textLength="154.52"
           lengthAdjust="spacingAndGlyphs"
           id="text18099">Spearman: 0 (p = 0.951)</text><text
           x="498.51999"
           y="69.370003"
           text-anchor="end"
           style="font-size:14.23px;font-family:Arial"
           textLength="0"
           lengthAdjust="spacingAndGlyphs"
           id="text18101" /></g><g
         clip-path="url(#cpMC4wMHw1MDQuMDB8MC4wMHw1MDQuMDA=-01)"
         id="g18151"><polyline
           points="33.27,472.27 33.27,23.34 "
           style="stroke-width:1.07;stroke-linecap:butt"
           id="polyline18105" /><text
           x="28.34"
           y="367.35001"
           text-anchor="end"
           style="font-size:8.8px;font-family:Arial;fill:#4d4d4d"
           textLength="9.79"
           lengthAdjust="spacingAndGlyphs"
           id="text18107">12</text><text
           x="28.34"
           y="247.53999"
           text-anchor="end"
           style="font-size:8.8px;font-family:Arial;fill:#4d4d4d"
           textLength="9.79"
           lengthAdjust="spacingAndGlyphs"
           id="text18109">15</text><text
           x="28.34"
           y="127.73"
           text-anchor="end"
           style="font-size:8.8px;font-family:Arial;fill:#4d4d4d"
           textLength="9.79"
           lengthAdjust="spacingAndGlyphs"
           id="text18111">18</text><polyline
           points="30.53,364.19 33.27,364.19 "
           style="stroke:#333333;stroke-width:1.07;stroke-linecap:butt"
           id="polyline18113" /><polyline
           points="30.53,244.38 33.27,244.38 "
           style="stroke:#333333;stroke-width:1.07;stroke-linecap:butt"
           id="polyline18115" /><polyline
           points="30.53,124.57 33.27,124.57 "
           style="stroke:#333333;stroke-width:1.07;stroke-linecap:butt"
           id="polyline18117" /><polyline
           points="33.27,472.27 498.52,472.27 "
           style="stroke-width:1.07;stroke-linecap:butt"
           id="polyline18119" /><polyline
           points="108.74,475.01 108.74,472.27 "
           style="stroke:#333333;stroke-width:1.07;stroke-linecap:butt"
           id="polyline18121" /><polyline
           points="186.35,475.01 186.35,472.27 "
           style="stroke:#333333;stroke-width:1.07;stroke-linecap:butt"
           id="polyline18123" /><polyline
           points="263.95,475.01 263.95,472.27 "
           style="stroke:#333333;stroke-width:1.07;stroke-linecap:butt"
           id="polyline18125" /><polyline
           points="341.56,475.01 341.56,472.27 "
           style="stroke:#333333;stroke-width:1.07;stroke-linecap:butt"
           id="polyline18127" /><polyline
           points="419.17,475.01 419.17,472.27 "
           style="stroke:#333333;stroke-width:1.07;stroke-linecap:butt"
           id="polyline18129" /><polyline
           points="496.77,475.01 496.77,472.27 "
           style="stroke:#333333;stroke-width:1.07;stroke-linecap:butt"
           id="polyline18131" /><text
           x="108.74"
           y="483.5"
           text-anchor="middle"
           style="font-size:8.8px;font-family:Arial;fill:#4d4d4d"
           textLength="9.79"
           lengthAdjust="spacingAndGlyphs"
           id="text18133">20</text><text
           x="186.35001"
           y="483.5"
           text-anchor="middle"
           style="font-size:8.8px;font-family:Arial;fill:#4d4d4d"
           textLength="9.79"
           lengthAdjust="spacingAndGlyphs"
           id="text18135">30</text><text
           x="263.95001"
           y="483.5"
           text-anchor="middle"
           style="font-size:8.8px;font-family:Arial;fill:#4d4d4d"
           textLength="9.79"
           lengthAdjust="spacingAndGlyphs"
           id="text18137">40</text><text
           x="341.56"
           y="483.5"
           text-anchor="middle"
           style="font-size:8.8px;font-family:Arial;fill:#4d4d4d"
           textLength="9.79"
           lengthAdjust="spacingAndGlyphs"
           id="text18139">50</text><text
           x="419.17001"
           y="483.5"
           text-anchor="middle"
           style="font-size:8.8px;font-family:Arial;fill:#4d4d4d"
           textLength="9.79"
           lengthAdjust="spacingAndGlyphs"
           id="text18141">60</text><text
           x="496.76999"
           y="483.5"
           text-anchor="middle"
           style="font-size:8.8px;font-family:Arial;fill:#4d4d4d"
           textLength="9.79"
           lengthAdjust="spacingAndGlyphs"
           id="text18143">70</text><text
           x="265.89001"
           y="496.09"
           text-anchor="middle"
           style="font-size:11px;font-family:Arial"
           textLength="64.800003"
           lengthAdjust="spacingAndGlyphs"
           id="text18145">BAPQ Ridgid</text><text
           transform="rotate(-90,130.585,117.215)"
           text-anchor="middle"
           style="font-size:11px;font-family:Arial"
           textLength="108.2"
           lengthAdjust="spacingAndGlyphs"
           id="text18147">RLCKTOptimizedBeta</text><text
           x="33.27"
           y="14.94"
           style="font-size:13.2px;font-family:Arial"
           textLength="157.63"
           lengthAdjust="spacingAndGlyphs"
           id="text18149">BAPQ Ridgid x RLCK Beta</text></g></g></g></svg>
